<svg width="1440" height="759" viewBox="0 0 1440 759" fill="none" xmlns="http://www.w3.org/2000/svg">
<g clip-path="url(#clip0_1460_37275)">
<g opacity="0.4">
<mask id="mask0_1460_37275" style="mask-type:alpha" maskUnits="userSpaceOnUse" x="-330" y="-582" width="1956" height="1440">
<path d="M758.16 -40.2153C758.16 107.045 660.795 226.422 540.69 226.422C420.584 226.422 -329.822 -290.075 -329.822 -437.335C-329.822 -584.595 748.365 -381.864 868.471 -381.864C988.577 -381.864 758.16 -187.475 758.16 -40.2153Z" fill="url(#paint0_linear_1460_37275)"/>
<path d="M842.625 590.81C842.625 738.07 745.26 857.448 625.155 857.448C505.049 857.448 -164.042 823.122 -164.042 675.862C-164.042 528.602 -114.584 179.778 5.52185 179.778C125.627 179.778 842.625 443.55 842.625 590.81Z" fill="url(#paint1_radial_1460_37275)"/>
<path d="M1089.32 -39.8109C1413.39 252.878 1263.69 105.79 1542.03 98.3792C1585.7 106.791 1659.82 107.191 1607.01 41.499C1541 -40.6154 1562.27 -98.6135 1479.77 -188.078C1397.27 -277.542 1347.02 -368.435 1222.47 -510.725C1097.91 -653.016 1088.33 -535.722 947.908 -546.841C807.488 -557.96 871.534 -540.302 677.79 -333.845C484.046 -127.388 765.255 -332.5 1089.32 -39.8109Z" fill="#D9D9D9"/>
<path d="M783.375 420.57C349.695 471.629 558.971 455.87 381.212 670.189C346.123 697.504 296.998 753.016 381.212 756.546C486.48 760.958 516.107 815.169 637.764 812.017C759.421 808.865 860.908 830.927 1050.01 830.927C1239.12 830.927 1157.17 746.461 1258.03 648.126C1358.88 549.792 1303.41 586.352 1275.68 304.586C1247.94 22.8203 1217.05 369.512 783.375 420.57Z" fill="#D9D9D9"/>
</mask>
<g mask="url(#mask0_1460_37275)">
<line x1="-32.2949" y1="265.504" x2="1479.28" y2="265.504" stroke="white" stroke-opacity="0.09" stroke-width="1.2607"/>
<line x1="-32.2949" y1="588.243" x2="1479.28" y2="588.243" stroke="white" stroke-opacity="0.09" stroke-width="1.2607"/>
<line x1="-32.2949" y1="749.613" x2="1479.28" y2="749.613" stroke="white" stroke-opacity="0.09" stroke-width="1.2607"/>
<line x1="-32.2949" y1="104.134" x2="1479.28" y2="104.134" stroke="white" stroke-opacity="0.09" stroke-width="1.2607"/>
<line x1="-32.2949" y1="426.873" x2="1479.28" y2="426.873" stroke="white" stroke-opacity="0.09" stroke-width="1.2607"/>
<line x1="-32.2949" y1="184.819" x2="1479.28" y2="184.819" stroke="white" stroke-opacity="0.09" stroke-width="1.2607"/>
<line x1="-32.2949" y1="507.557" x2="1479.28" y2="507.557" stroke="white" stroke-opacity="0.09" stroke-width="1.2607"/>
<line x1="-32.2949" y1="668.927" x2="1479.28" y2="668.927" stroke="white" stroke-opacity="0.09" stroke-width="1.2607"/>
<line x1="-32.2949" y1="23.4492" x2="1479.28" y2="23.4492" stroke="white" stroke-opacity="0.09" stroke-width="1.2607"/>
<line x1="-32.2949" y1="346.189" x2="1479.28" y2="346.189" stroke="white" stroke-opacity="0.09" stroke-width="1.2607"/>
<line x1="14.98" y1="-408.338" x2="14.9799" y2="759.068" stroke="white" stroke-opacity="0.09" stroke-width="1.2607"/>
<line x1="660.461" y1="-408.338" x2="660.461" y2="759.068" stroke="white" stroke-opacity="0.09" stroke-width="1.2607"/>
<line x1="337.72" y1="-408.338" x2="337.72" y2="759.068" stroke="white" stroke-opacity="0.09" stroke-width="1.2607"/>
<line x1="983.197" y1="-408.338" x2="983.197" y2="759.068" stroke="white" stroke-opacity="0.09" stroke-width="1.2607"/>
<line x1="1305.94" y1="-408.338" x2="1305.94" y2="759.068" stroke="white" stroke-opacity="0.09" stroke-width="1.2607"/>
<line x1="176.35" y1="-408.338" x2="176.35" y2="759.068" stroke="white" stroke-opacity="0.09" stroke-width="1.2607"/>
<line x1="821.827" y1="-408.338" x2="821.827" y2="759.068" stroke="white" stroke-opacity="0.09" stroke-width="1.2607"/>
<line x1="499.09" y1="-408.338" x2="499.09" y2="759.068" stroke="white" stroke-opacity="0.09" stroke-width="1.2607"/>
<line x1="1144.57" y1="-408.338" x2="1144.57" y2="759.068" stroke="white" stroke-opacity="0.09" stroke-width="1.2607"/>
<line x1="95.6675" y1="-408.338" x2="95.6674" y2="759.068" stroke="white" stroke-opacity="0.09" stroke-width="1.2607"/>
<line x1="741.144" y1="-408.338" x2="741.143" y2="759.068" stroke="white" stroke-opacity="0.09" stroke-width="1.2607"/>
<line x1="418.403" y1="-408.338" x2="418.403" y2="759.068" stroke="white" stroke-opacity="0.09" stroke-width="1.2607"/>
<line x1="1063.88" y1="-408.338" x2="1063.88" y2="759.068" stroke="white" stroke-opacity="0.09" stroke-width="1.2607"/>
<line x1="1386.62" y1="-408.338" x2="1386.62" y2="759.068" stroke="white" stroke-opacity="0.09" stroke-width="1.2607"/>
<line x1="257.038" y1="-408.338" x2="257.038" y2="759.068" stroke="white" stroke-opacity="0.09" stroke-width="1.2607"/>
<line x1="902.514" y1="-408.338" x2="902.514" y2="759.068" stroke="white" stroke-opacity="0.09" stroke-width="1.2607"/>
<line x1="579.773" y1="-408.338" x2="579.773" y2="759.068" stroke="white" stroke-opacity="0.09" stroke-width="1.2607"/>
<line x1="1225.25" y1="-408.338" x2="1225.25" y2="759.068" stroke="white" stroke-opacity="0.09" stroke-width="1.2607"/>
<g opacity="0.7">
<rect x="830.532" y="606.259" width="80.2262" height="80.2262" fill="#79E7BA" fill-opacity="0.36"/>
<rect x="427.108" y="606.259" width="80.2262" height="80.2262" fill="#79E7BA" fill-opacity="0.25"/>
<rect x="1153.73" y="42.3833" width="80.2262" height="79.0801" fill="#79E7BA" fill-opacity="0.11"/>
<rect x="507.335" y="-37.8428" width="80.2262" height="79.0801" fill="#79E7BA" fill-opacity="0.31"/>
<rect x="1072.36" y="122.609" width="80.2262" height="79.0801" fill="#79E7BA" fill-opacity="0.11"/>
<rect x="425.963" y="42.3833" width="80.2262" height="79.0801" fill="#79E7BA" fill-opacity="0.31"/>
<rect x="1072.36" y="42.3833" width="80.2262" height="79.0801" fill="#79E7BA" fill-opacity="0.11"/>
<rect x="425.963" y="-37.8428" width="80.2262" height="79.0801" fill="#79E7BA" fill-opacity="0.31"/>
<rect x="346.883" y="606.259" width="80.2262" height="80.2262" fill="#79E7BA" fill-opacity="0.25"/>
<rect x="346.883" y="686.485" width="80.2262" height="81.3723" fill="#79E7BA" fill-opacity="0.25"/>
<rect x="185.284" y="526.033" width="80.2262" height="80.2262" fill="#79E7BA" fill-opacity="0.25"/>
<rect x="185.284" y="-40.1353" width="81.3723" height="82.5184" fill="#79E7BA" fill-opacity="0.24"/>
<rect x="103.912" y="-40.1353" width="81.3723" height="82.5184" fill="#79E7BA" fill-opacity="0.24"/>
<rect x="185.284" y="121.463" width="80.2262" height="81.3723" fill="#79E7BA" fill-opacity="0.24"/>
<rect x="1153.73" y="526.033" width="80.2262" height="80.2262" fill="#79E7BA" fill-opacity="0.26"/>
<rect x="1233.96" y="606.259" width="80.2262" height="80.2262" fill="#79E7BA" fill-opacity="0.26"/>
</g>
</g>
</g>
<g filter="url(#filter0_f_1460_37275)">
<ellipse cx="720" cy="874" rx="334" ry="163" fill="#79E7BA"/>
</g>
</g>
<defs>
<filter id="filter0_f_1460_37275" x="-1.60001" y="323.4" width="1443.2" height="1101.2" filterUnits="userSpaceOnUse" color-interpolation-filters="sRGB">
<feFlood flood-opacity="0" result="BackgroundImageFix"/>
<feBlend mode="normal" in="SourceGraphic" in2="BackgroundImageFix" result="shape"/>
<feGaussianBlur stdDeviation="193.8" result="effect1_foregroundBlur_1460_37275"/>
</filter>
<linearGradient id="paint0_linear_1460_37275" x1="189.585" y1="-363.584" x2="644.067" y2="-121.53" gradientUnits="userSpaceOnUse">
<stop stop-color="white"/>
<stop offset="1" stop-color="white" stop-opacity="0"/>
</linearGradient>
<radialGradient id="paint1_radial_1460_37275" cx="0" cy="0" r="1" gradientUnits="userSpaceOnUse" gradientTransform="translate(154.914 597.069) rotate(-29.3932) scale(777.019 1335.47)">
<stop stop-color="white"/>
<stop offset="1" stop-color="white" stop-opacity="0"/>
</radialGradient>
<clipPath id="clip0_1460_37275">
<rect width="1440" height="759" fill="white"/>
</clipPath>
</defs>
</svg>
